<svg width="26" height="26" viewBox="0 0 28 28" fill="none" xmlns="http://www.w3.org/2000/svg">
    <path
        d="M3.82038 17.8449C2.82879 16.5567 2.33301 15.9126 2.33301 14C2.33301 12.0873 2.82879 11.4432 3.82038 10.155C5.80029 7.58278 9.1208 4.66663 13.9997 4.66663C18.8786 4.66663 22.199 7.58278 24.179 10.155C25.1705 11.4432 25.6663 12.0873 25.6663 14C25.6663 15.9126 25.1705 16.5567 24.179 17.8449C22.199 20.4171 18.8786 23.3333 13.9997 23.3333C9.1208 23.3333 5.80029 20.4171 3.82038 17.8449Z"
        fill="white" stroke="#7A08FA" stroke-width="1.5" />
    <path
        d="M17.5 14C17.5 15.933 15.933 17.5 14 17.5C12.0669 17.5 10.5 15.933 10.5 14C10.5 12.0669 12.0669 10.5 14 10.5C15.933 10.5 17.5 12.0669 17.5 14Z"
        stroke="#7A08FA" stroke-width="1.5" />
</svg>