<svg width="24" height="24" viewBox="0 0 24 24" fill="none" xmlns="http://www.w3.org/2000/svg">
    <path
        d="M2 17V6C2 3.79086 3.79086 2 6 2H18C20.2091 2 22 3.79086 22 6V15M2 17V18C2 20.2091 3.79086 22 6 22H18C20.2091 22 22 20.2091 22 18V15M2 17L7.55173 9.86206C8.31008 8.88703 9.76222 8.82574 10.6 9.73338L21 21M15.5 15L17.5938 13.2053C18.3873 12.5252 19.5706 12.5706 20.3096 13.3096L22 15M17.5 8V8C18.3284 8 19 7.32843 19 6.5V6.5C19 5.67157 18.3284 5 17.5 5V5C16.6716 5 16 5.67157 16 6.5V6.5C16 7.32843 16.6716 8 17.5 8Z"
        stroke="#2D3250" stroke-width="2" stroke-linejoin="round" />
</svg>