<svg width="32" height="32" viewBox="0 0 32 32" fill="none" xmlns="http://www.w3.org/2000/svg">
<rect width="32" height="32" rx="6" fill="url(#paint0_linear_836_2)"/>
<g clip-path="url(#clip0_836_2)">
<path d="M16 6.16221C19.2041 6.16221 19.5836 6.1744 20.849 6.23213C22.019 6.28553 22.6544 6.48102 23.0773 6.64531C23.6373 6.863 24.0371 7.12308 24.457 7.54297C24.8769 7.96287 25.137 8.36266 25.3546 8.92274C25.519 9.34564 25.7145 9.98103 25.7679 11.151C25.8256 12.4164 25.8378 12.7959 25.8378 16C25.8378 19.2042 25.8256 19.5837 25.7679 20.849C25.7145 22.019 25.519 22.6544 25.3546 23.0773C25.137 23.6374 24.8769 24.0372 24.457 24.4571C24.0371 24.877 23.6373 25.137 23.0773 25.3547C22.6544 25.519 22.019 25.7145 20.849 25.7679C19.5838 25.8256 19.2043 25.8378 16 25.8378C12.7956 25.8378 12.4161 25.8256 11.151 25.7679C9.98098 25.7145 9.34559 25.519 8.92274 25.3547C8.36261 25.137 7.96282 24.877 7.54293 24.4571C7.12303 24.0372 6.86295 23.6374 6.64531 23.0773C6.48097 22.6544 6.28548 22.019 6.23209 20.8491C6.17435 19.5837 6.16216 19.2042 6.16216 16C6.16216 12.7959 6.17435 12.4164 6.23209 11.151C6.28548 9.98103 6.48097 9.34564 6.64531 8.92274C6.86295 8.36266 7.12303 7.96287 7.54293 7.54297C7.96282 7.12308 8.36261 6.863 8.92274 6.64531C9.34559 6.48102 9.98098 6.28553 11.1509 6.23213C12.4163 6.1744 12.7958 6.16221 16 6.16221ZM16 4C12.7409 4 12.3323 4.01381 11.0524 4.07221C9.77511 4.13052 8.90283 4.33334 8.1395 4.63001C7.35039 4.93668 6.68118 5.347 6.01406 6.01411C5.34695 6.68123 4.93663 7.35044 4.62996 8.13954C4.3333 8.90288 4.13047 9.77516 4.07217 11.0525C4.01377 12.3323 4 12.741 4 16C4 19.2591 4.01377 19.6677 4.07217 20.9476C4.13047 22.2249 4.3333 23.0972 4.62996 23.8605C4.93663 24.6496 5.34695 25.3188 6.01406 25.9859C6.68118 26.6531 7.35039 27.0634 8.1395 27.37C8.90283 27.6667 9.77511 27.8695 11.0524 27.9278C12.3323 27.9862 12.7409 28 16 28C19.259 28 19.6677 27.9862 20.9475 27.9278C22.2248 27.8695 23.0971 27.6667 23.8605 27.37C24.6496 27.0634 25.3188 26.6531 25.9859 25.9859C26.653 25.3188 27.0633 24.6496 27.37 23.8605C27.6667 23.0972 27.8695 22.2249 27.9278 20.9476C27.9862 19.6677 28 19.2591 28 16C28 12.741 27.9862 12.3323 27.9278 11.0525C27.8695 9.77516 27.6667 8.90288 27.37 8.13954C27.0633 7.35044 26.653 6.68123 25.9859 6.01411C25.3188 5.347 24.6496 4.93668 23.8605 4.63001C23.0971 4.33334 22.2248 4.13052 20.9475 4.07221C19.6677 4.01381 19.259 4 16 4ZM16 9.83784C12.5967 9.83784 9.83779 12.5968 9.83779 16C9.83779 19.4033 12.5967 22.1622 16 22.1622C19.4032 22.1622 22.1622 19.4033 22.1622 16C22.1622 12.5968 19.4032 9.83784 16 9.83784ZM16 20C13.7909 20 12 18.2091 12 16C12 13.7909 13.7909 12 16 12C18.2091 12 20 13.7909 20 16C20 18.2091 18.2091 20 16 20ZM23.8456 9.59438C23.8456 10.3897 23.2009 11.0344 22.4056 11.0344C21.6103 11.0344 20.9656 10.3897 20.9656 9.59438C20.9656 8.79909 21.6103 8.15441 22.4056 8.15441C23.2009 8.15441 23.8456 8.79909 23.8456 9.59438Z" fill="white"/>
</g>
<defs>
<linearGradient id="paint0_linear_836_2" x1="32" y1="0" x2="0" y2="32" gradientUnits="userSpaceOnUse">
<stop stop-color="#E4405F"/>
<stop offset="1" stop-color="#E9617B"/>
</linearGradient>
<clipPath id="clip0_836_2">
<rect width="24" height="24" fill="white" transform="translate(4 4)"/>
</clipPath>
</defs>
</svg>
