<svg width="24" height="24" viewBox="0 0 24 24" fill="none" xmlns="http://www.w3.org/2000/svg">
<path fill-rule="evenodd" clip-rule="evenodd" d="M9.54545 4.63636H4.63636V9.54545H9.54545V4.63636ZM3 3V11.1818H11.1818V3H3ZM9.54545 14.4545H4.63636V19.3636H9.54545V14.4545ZM3 12.8182V21H11.1818V12.8182H3ZM14.4545 4.63636H19.3636V9.54545H14.4545V4.63636ZM12.8182 11.1818V3H21V11.1818H12.8182ZM12.8182 17.7273V12.8182H14.4545V17.7273H12.8182ZM6.27273 6.27273V7.90909H7.90909V6.27273H6.27273ZM6.27273 17.7273V16.0909H7.90909V17.7273H6.27273ZM16.0909 6.27273V7.90909H17.7273V6.27273H16.0909ZM19.3636 21V18.5455H21V21H19.3636ZM19.3636 12.8182V15.2727H17.7273V12.8182H16.0909V19.3636H12.8182V21H17.7273V16.9091H21V15.2727V12.8182H19.3636Z" fill="#2D3250"/>
</svg>
