<svg width="24" height="24" viewBox="0 0 24 24" fill="none" xmlns="http://www.w3.org/2000/svg">
<path d="M11.0798 6.16204L11.9245 6.87572C11.968 6.91239 12.032 6.91239 12.0755 6.87572L12.9202 6.16204C15.2833 4.1658 18.9119 4.82176 20.4022 7.51463C21.4767 9.45608 21.074 11.8689 19.4252 13.369L12.2365 19.9089C12.1029 20.0304 11.8971 20.0304 11.7634 19.9089L4.57479 13.369C2.92599 11.8689 2.52332 9.45608 3.5978 7.51463C5.08815 4.82176 8.71668 4.1658 11.0798 6.16204Z" stroke="#2D3250" stroke-width="1.2"/>
<path d="M3 10H9V7V5.5V4.5L6 5L4 6.25L3 7.5V10ZM6 5H8V9H4V7.5V6.25L6 5ZM5 6H7V8H5V6ZM15 10H21V7.5L19.5 6L15 5V5.5V7V10ZM16 5L19 6L20 7V9H16V5ZM17 6H19V8H17V6ZM9 16H8V17L9 17.5V16ZM6 11V13H4V12H3V11H6ZM10 8H11V9H10V8ZM19 11V12H17V14H15V13H16V11H19ZM12 15H11V14H10V13H12V15ZM20 12V13H19V12H20ZM11 15V16H10V15H11ZM14 14H15V17H14V18H13V19H12V17H11V16H14V15H13V14H14ZM17.5 16H16V15H18L17.5 16ZM8 11H9V12H8V13H9V15H8V14H7V15H6V13H7V11H8ZM11 11V9H14V12H12V11H13V10H12V11H11ZM11 7H12V8H11V7ZM10 11H11V12H10V11ZM13 8V7H14V8H13Z" fill="#2D3250"/>
</svg>
