<svg width="26" height="26" fill="none" viewBox="0 0 28 28" xmlns="http://www.w3.org/2000/svg">
    <path
        d="M24.9687 15.1859C25.2632 14.9496 25.4105 14.8315 25.4645 14.6909C25.5118 14.5675 25.5118 14.4325 25.4645 14.3091C25.4105 14.1685 25.2632 14.0504 24.9687 13.8141L14.7471 5.61527C14.24 5.20853 13.9865 5.00515 13.7718 5.00017C13.5853 4.99585 13.407 5.07255 13.2891 5.20792C13.1535 5.36367 13.1535 5.67617 13.1535 6.30116V11.1514C10.5776 11.5732 8.22007 12.7946 6.46811 14.6286C4.55805 16.6281 3.50148 19.2156 3.5 21.8975V22.5885C4.76623 21.1611 6.3472 20.0067 8.13461 19.2043C9.71047 18.4968 11.414 18.0778 13.1535 17.9673V22.6989C13.1535 23.3238 13.1535 23.6363 13.2891 23.7921C13.407 23.9274 13.5853 24.0041 13.7718 23.9998C13.9865 23.9949 14.24 23.7915 14.7471 23.3847L24.9687 15.1859Z"
        fill="white" stroke="#7A08FA" stroke-width="1.5" stroke-linecap="round" stroke-linejoin="round" />
</svg>