<svg width="32" height="32" viewBox="0 0 32 32" fill="none" xmlns="http://www.w3.org/2000/svg">
<rect width="32" height="32" rx="6" fill="url(#paint0_linear_836_6)"/>
<path d="M24.1327 7.6545C24.1327 7.6545 26.0754 6.897 25.9135 8.73664C25.8595 9.49415 25.3739 12.1454 24.9961 15.0131L23.701 23.5079C23.701 23.5079 23.5931 24.7524 22.6218 24.9688C21.6504 25.1852 20.1935 24.2113 19.9236 23.9949C19.7078 23.8326 15.8765 21.3977 14.5274 20.2074C14.1496 19.8827 13.7179 19.2334 14.5813 18.4759L20.2474 13.0652C20.895 12.4159 21.5425 10.9009 18.8444 12.7406L11.2896 17.8808C11.2896 17.8808 10.4262 18.4218 8.8074 17.9349L5.29981 16.8527C5.29981 16.8527 4.0047 16.0411 6.21717 15.2295C11.6134 12.6864 18.2508 10.0893 24.1327 7.6545Z" fill="white"/>
<defs>
<linearGradient id="paint0_linear_836_6" x1="32" y1="0" x2="0" y2="32" gradientUnits="userSpaceOnUse">
<stop stop-color="#5096FF"/>
<stop offset="1" stop-color="#0B9EE6"/>
</linearGradient>
</defs>
</svg>
