<svg width="28" height="28" viewBox="0 0 28 28" fill="none" xmlns="http://www.w3.org/2000/svg">
<path d="M5 7.5H12V9.5H23.5L24.5 10.5V23.5H4.5L5 7.5Z" fill="white"/>
<path d="M4 10V22C4 23.1046 4.89543 24 6 24H23C24.1046 24 25 23.1046 25 22V12C25 10.8954 24.1046 10 23 10H12H4ZM4 10V9C4 7.89543 4.89543 7 6 7H19" stroke="#2D3250" stroke-width="2" stroke-linecap="round"/>
<path d="M16.3251 3.85563L11 10H20.9296C21.5983 10 22.2228 9.6658 22.5937 9.1094L22.9099 8.63516C23.515 7.72748 23.2811 6.50233 22.3842 5.88138L18.9749 3.5211C18.1357 2.9401 16.9936 3.08428 16.3251 3.85563Z" fill="#7A08FA" stroke="#2D3250" stroke-width="2"/>
<path d="M21 17C21 17.8284 20.3284 18.5 19.5 18.5C18.6716 18.5 18 17.8284 18 17C18 16.1716 18.6716 15.5 19.5 15.5C20.3284 15.5 21 16.1716 21 17Z" fill="#7A08FA" stroke="#2D3250" stroke-width="2"/>
</svg>
